<?xml version="1.0" encoding="iso-8859-1"?>
<!-- Generator: Adobe Illustrator 19.0.0, SVG Export Plug-In . SVG Version: 6.00 Build 0)  -->
<svg version="1.1" id="Layer_1" xmlns="http://www.w3.org/2000/svg" xmlns:xlink="http://www.w3.org/1999/xlink" x="0px" y="0px"
	 viewBox="0 0 505.174 505.174" style="enable-background:new 0 0 505.174 505.174;" xml:space="preserve">
<g transform="translate(1 1)">
	<circle style="fill:#80D6FA;" cx="251.16" cy="252.44" r="247.467"/>
	<path style="fill:#AAB1BA;" d="M379.16,415.427c9.387,0,17.067,7.68,17.067,17.067c0,6.827-4.267,12.8-10.24,16.213
		c0.853,3.413,1.707,5.973,1.707,9.387c0,14.507-11.093,25.6-25.6,25.6c-7.68,0-13.653-3.413-18.773-7.68
		c-4.267,14.507-17.067,24.747-32.427,24.747c-18.773,0-34.133-15.36-34.133-34.133s15.36-34.133,34.133-34.133
		c0.853,0,0.853,0,1.707,0c-0.853-2.56-1.707-5.973-1.707-8.533c0-14.507,11.093-25.6,25.6-25.6c14.507,0,25.6,11.093,25.6,25.6
		c0,3.413-0.853,5.973-1.707,8.533c0.853,0,0.853,0,1.707,0C362.094,423.107,369.774,415.427,379.16,415.427z M353.56,244.76
		c14.507,0,25.6,11.093,25.6,25.6c0,14.507-11.093,25.6-25.6,25.6c-0.853,0-0.853,0-0.853,0c0.853,2.56,0.853,5.973,0.853,8.533
		c0,18.773-15.36,34.133-34.133,34.133c-17.067,0-30.72-11.947-33.28-28.16c-2.56,1.707-5.973,2.56-9.387,2.56
		c-9.387,0-17.067-7.68-17.067-17.067s7.68-17.067,17.067-17.067c5.973,0,11.093,2.56,13.653,7.68
		c5.973-9.387,16.213-16.213,29.013-16.213c3.413,0,5.973,0.853,8.533,1.707c0-0.853,0-0.853,0-1.707
		C327.96,256.707,339.054,244.76,353.56,244.76z M80.494,125.294c9.387,0,17.067,7.68,17.067,17.067s-7.68,17.067-17.067,17.067
		c-4.267,0-8.533-1.707-11.947-5.12c-4.267,7.68-12.8,13.653-22.187,13.653c-3.413,0-5.973-0.853-8.533-1.707
		c0,0.853,0,0.853,0,1.707c0,9.387-7.68,17.067-17.067,17.067s-17.067-7.68-17.067-17.067s7.68-17.067,17.067-17.067
		c0.853,0,0.853,0,1.707,0c-0.853-2.56-1.707-5.973-1.707-8.533c0-14.507,11.093-25.6,25.6-25.6c9.387,0,17.92,5.12,22.187,13.653
		C71.96,127,76.227,125.294,80.494,125.294z M46.36,387.267c-2.56,0.853-5.973,1.707-8.533,1.707c-14.507,0-25.6-20.48-25.6-25.6
		c0-14.507,11.093-25.6,25.6-25.6s25.6,11.093,25.6,25.6c0,3.413-0.853,5.973-1.707,8.533c0.853,0,0.853,0,1.707,0
		c9.387,0,17.067,7.68,17.067,17.067c0,3.413-0.853,6.827-2.56,9.387c6.827,1.707,12.8,6.827,16.213,12.8
		c3.413-3.413,6.827-5.12,11.947-5.12c9.387,0,17.067,7.68,17.067,17.067s-7.68,17.067-17.067,17.067
		c-4.267,0-8.533-1.707-11.947-5.12c-4.267,7.68-12.8,13.653-22.187,13.653c-14.507,0-25.6-11.093-25.6-25.6
		c0-7.68,3.413-14.507,8.533-19.627c-5.12-2.56-8.533-8.533-8.533-14.507C46.36,388.12,46.36,388.12,46.36,387.267z"/>
	<path style="fill:#FFD0A1;" d="M440.6,95.427c15.36,17.92,23.04,30.72,23.04,30.72c11.947,19.627,20.48,40.107,26.453,62.293
		c-31.573,13.653-81.92,19.627-93.867,13.653c-17.067-8.533-17.067-51.2-46.933-52.907c-11.947-0.853-25.6,51.2-42.667,59.733
		c-17.067,8.533-25.6-25.6-42.667-51.2s25.6-51.2,42.667-51.2c17.067,0,17.067-42.667,17.067-51.2s-17.067-18.773-11.947-42.667
		c40.107,9.387,73.387,29.867,97.28,51.2C421.827,74.947,432.067,86.04,440.6,95.427z M251.16,500.76
		c-29.013,0-59.733-6.827-59.733-6.827c-23.893-5.973-46.933-12.8-65.707-27.307c-11.093-7.68-22.187-17.92-32.427-29.013
		c0,0,0.853-0.853,0.853-1.707c3.413,3.413,6.827,5.12,11.947,5.12c9.387,0,17.067-7.68,17.067-17.067s-7.68-17.067-17.067-17.067
		c-4.267,0-8.533,1.707-11.947,5.12c-3.413-5.973-9.387-11.093-16.213-12.8c1.707-2.56,2.56-5.973,2.56-9.387
		c0-9.387-7.68-17.067-17.067-17.067c-0.853,0-0.853,0-1.707,0c0.853-2.56,1.707-5.973,1.707-8.533c0-14.507-11.093-25.6-25.6-25.6
		c-4.267,0-8.533,0.853-11.947,3.413c-7.68-14.507-13.653-27.307-16.213-37.547c-4.267-16.213-5.12-33.28-5.12-51.2
		c0-10.24,0.853-18.773,1.707-29.013c31.573-1.707,69.12,4.267,58.027,16.213c-17.067,17.067-8.533,85.333,25.6,59.733
		c34.133-25.6,51.2-59.733,42.667-85.333s59.733-34.133,59.733,8.533s-17.067,34.133-25.6,59.733
		c-8.533,25.6,8.533,25.6,17.067,34.133c8.533,8.533,34.133,25.6,8.533,85.333C172.654,447,217.88,480.28,251.16,500.76z"/>
</g>
<path style="fill:#51565F;" d="M252.16,505.174c-0.853,0-1.707,0-2.56-0.853c-24.747-15.36-82.773-52.907-61.44-103.253
	c22.187-52.053,4.267-69.12-5.12-78.507c-0.853-0.853-1.707-1.707-2.56-2.56c-1.707-1.707-4.267-3.413-6.827-4.267
	c-7.68-5.12-18.773-11.093-11.093-34.133c3.413-11.093,8.533-16.213,12.8-20.48c6.827-6.827,11.947-12.8,11.947-37.547
	c0-13.653-7.68-19.627-14.507-23.04c-11.947-5.12-28.16-2.56-34.133,3.413c-3.413,2.56-4.267,5.973-2.56,9.387
	c9.387,27.307-8.533,63.147-44.373,90.453c-17.067,12.8-27.307,4.267-30.72-0.853c-12.8-15.36-13.653-52.907,0-65.707
	c0.853-0.853,0.853-0.853,0.853-0.853c-1.707-3.413-23.893-8.533-52.053-7.68C8.96,237.227,8.96,244.907,8.96,253.44
	c0,17.067,1.707,34.133,5.12,50.347c0.853,2.56-0.853,4.267-3.413,5.12c-2.56,0.853-4.267-0.853-5.12-3.413
	c-3.413-17.067-5.12-34.987-5.12-52.053c0-10.24,0.853-18.773,1.707-29.013v-0.853c0-0.853,0.853-0.853,0.853-1.707l0,0l0,0
	c0.853,0,0.853-0.853,1.707-0.853h0.853c16.213-0.853,58.027,0,64,12.8c0.853,1.707,1.707,5.973-2.56,10.24
	c-10.24,10.24-9.387,42.667,0.853,53.76c1.707,1.707,6.827,8.533,19.627-0.853c32.427-24.747,49.493-57.173,40.96-80.213
	c-2.56-6.827-0.853-13.653,5.12-18.773c10.24-8.533,29.013-11.093,43.52-5.12c12.8,5.12,19.627,16.213,19.627,30.72
	c0,28.16-7.68,35.84-14.507,43.52c-4.267,4.267-8.533,8.533-11.093,17.92c-5.12,16.213,0,18.773,7.68,23.893
	c2.56,1.707,5.973,3.413,8.533,5.973c0.853,0.853,1.707,0.853,1.707,1.707c10.24,9.387,32.427,29.867,7.68,87.893
	c-17.067,39.253,19.627,69.12,58.027,93.013c1.707,0.853,2.56,4.267,1.707,5.973C254.72,504.32,253.867,505.174,252.16,505.174z
	 M311.894,505.174c-21.333,0-38.4-17.067-38.4-38.4c0-19.627,15.36-35.84,34.133-38.4c0-1.707,0-3.413,0-4.267
	c0-16.213,13.653-29.867,29.867-29.867c13.653,0,25.6,9.387,29.013,22.187c3.413-3.413,8.533-5.12,13.653-5.12
	c11.947,0,21.333,9.387,21.333,21.333c0,7.68-3.413,13.653-9.387,17.92c0.853,2.56,0.853,5.12,0.853,7.68
	c0,16.213-13.653,29.867-29.867,29.867c-5.973,0-11.947-1.707-16.213-5.12C340.054,496.64,326.4,505.174,311.894,505.174z
	 M311.894,436.907c-17.067,0-29.867,13.653-29.867,29.867c0,16.213,13.653,29.867,29.867,29.867
	c13.653,0,24.747-9.387,29.013-22.187c0-1.707,1.707-2.56,3.413-3.413c1.707,0,3.413,0,4.267,0.853
	c4.267,4.267,9.387,6.827,15.36,6.827c11.947,0,21.333-9.387,21.333-21.333c0-2.56-0.853-5.973-1.707-8.533
	c-0.853-0.853-0.853-2.56,0-3.413c0.853-0.853,0.853-1.707,2.56-2.56c5.12-1.707,7.68-6.827,7.68-11.947
	c0-6.827-5.973-12.8-12.8-12.8c-6.827,0-12.8,5.973-12.8,12.8c0,2.56-1.707,4.267-4.267,4.267c0,0-0.853,0-1.707,0
	c-1.707,0-2.56-0.853-3.413-1.707c-0.853-0.853-0.853-2.56-0.853-4.267c0.853-2.56,1.707-5.12,1.707-6.827
	c0-11.947-9.387-21.333-21.333-21.333s-21.333,9.387-21.333,21.333c0,2.56,0.853,5.12,1.707,6.827c0.853,1.707,0,2.56-0.853,4.267
	c-0.853,0.853-2.56,1.707-3.413,1.707C313.6,436.907,312.747,436.907,311.894,436.907L311.894,436.907z M192.427,498.347h-0.853
	c-23.893-5.973-46.08-15.36-67.413-27.307c-1.707-0.853-2.56-3.413-1.707-5.973c0.853-1.707,3.413-2.56,5.973-1.707
	c20.48,11.947,41.813,20.48,64.853,26.453c2.56,0.853,3.413,2.56,3.413,5.12C195.84,496.64,194.134,498.347,192.427,498.347z
	 M72.96,453.974c-16.213,0-29.867-13.653-29.867-29.867c0-6.827,2.56-13.653,6.827-18.773c-3.413-3.413-5.12-6.827-5.973-11.947
	C26.027,396.8,9.813,382.294,9.813,363.52c0-16.213,13.653-29.867,29.867-29.867s29.867,13.653,29.867,29.867
	c0,1.707,0,3.413,0,4.267c10.24,1.707,17.067,10.24,17.067,21.333c0,2.56,0,4.267-0.853,6.827c4.267,1.707,8.533,5.12,11.947,9.387
	c3.413-1.707,6.827-2.56,11.093-2.56c11.947,0,21.333,9.387,21.333,21.333s-9.387,21.333-21.333,21.333
	c-3.413,0-7.68-0.853-11.093-2.56C90.88,449.707,82.347,453.974,72.96,453.974z M47.36,384c0.853,0,1.707,0,2.56,0.853
	c0.853,0.853,1.707,2.56,1.707,3.413v0.853c0,4.267,2.56,8.533,6.827,11.093c0.853,0.853,1.707,1.707,2.56,3.413
	c0,1.707,0,2.56-1.707,3.413c-5.12,4.267-7.68,10.24-7.68,16.213c0,11.947,9.387,21.333,21.333,21.333
	c7.68,0,14.507-4.267,18.773-11.093c0.853-0.853,1.707-1.707,3.413-2.56c1.707,0,2.56,0,3.413,0.853
	c2.56,2.56,5.973,3.413,8.533,3.413c6.827,0,12.8-5.973,12.8-12.8c0-6.827-5.973-12.8-12.8-12.8c-3.413,0-6.827,0.853-8.533,3.413
	c-0.853,0.853-2.56,1.707-3.413,0.853c-1.707,0-2.56-0.853-3.413-2.56c-2.56-5.12-7.68-9.387-13.653-10.24
	c-1.707,0-2.56-0.853-3.413-2.56c-0.853-1.707,0-2.56,0-4.267c1.707-1.707,1.707-4.267,1.707-6.827c0-6.827-5.973-12.8-12.8-12.8
	H62.72c-1.707,0-2.56-0.853-3.413-1.707c-0.853-0.853-0.853-2.56-0.853-4.267c0.853-2.56,1.707-5.12,1.707-6.827
	c0-11.947-9.387-21.333-21.333-21.333s-21.333,9.387-21.333,21.333c0,11.947,9.387,21.333,21.333,21.333
	c2.56,0,5.12-0.853,7.68-1.707C46.507,384,47.36,384,47.36,384z M431.36,428.374c-0.853,0-1.707,0-2.56-0.853
	c-1.707-1.707-1.707-4.267,0-5.973c43.52-45.227,67.413-104.96,67.413-168.107c0-11.093-0.853-22.187-2.56-33.28
	c0-2.56,1.707-4.267,3.413-5.12c2.56,0,4.267,1.707,5.12,3.413c1.707,11.093,2.56,23.04,2.56,34.987
	c0,64.853-24.747,126.293-69.12,173.227C433.92,427.52,432.214,428.374,431.36,428.374z M320.427,343.04
	c-17.067,0-31.573-11.093-36.693-26.453c-1.707,0.853-4.267,0.853-5.973,0.853c-11.947,0-21.333-9.387-21.333-21.333
	c0-11.947,9.387-21.333,21.333-21.333c5.12,0,9.387,1.707,13.653,5.12c6.827-8.533,17.92-13.653,29.013-13.653
	c1.707,0,2.56,0,4.267,0c1.707-14.507,14.507-25.6,29.867-25.6c16.213,0,29.867,13.653,29.867,29.867
	c0,15.36-11.093,27.307-25.6,29.867c0,1.707,0,3.413,0,4.267C358.827,325.974,341.76,343.04,320.427,343.04z M287.147,306.347
	c0.853,0,0.853,0,1.707,0c1.707,0.853,2.56,1.707,2.56,3.413c2.56,14.507,14.507,24.747,29.013,24.747
	c16.213,0,29.867-13.653,29.867-29.867c0-2.56,0-5.12-0.853-7.68c0-1.707,0-2.56,0.853-3.413s2.56-1.707,3.413-1.707h0.853l0,0
	c11.947,0,21.333-9.387,21.333-21.333s-9.387-21.333-21.333-21.333c-11.947,0-21.333,9.387-21.333,21.333v0.853
	c0,1.707-0.853,2.56-1.707,3.413c-0.853,0.853-2.56,0.853-3.413,0.853c-2.56-0.853-5.12-0.853-7.68-0.853
	c-10.24,0-19.627,5.12-24.747,13.653c-0.853,0.853-1.707,1.707-3.413,1.707c-0.853,0-2.56-0.853-3.413-1.707
	c-2.56-3.413-5.973-5.12-10.24-5.12c-6.827,0-12.8,5.973-12.8,12.8s5.973,12.8,12.8,12.8c2.56,0,5.12-0.853,6.827-1.707
	C285.44,306.347,286.294,306.347,287.147,306.347z M301.654,215.04c-11.947,0-19.627-15.36-27.307-31.573
	c-4.267-7.68-8.533-16.213-12.8-23.04c-5.973-8.533-5.973-18.773-0.853-28.16C270.08,115.2,295.68,102.4,307.627,102.4
	c5.973,0,12.8-11.947,12.8-46.933c0-1.707-1.707-4.267-3.413-7.68c-4.267-6.827-10.24-17.067-8.533-31.573
	c-17.92-4.267-36.693-6.827-55.467-6.827c-70.827,0-137.387,30.72-183.467,83.627c-1.707,1.707-4.267,1.707-5.973,0
	c-1.707-1.707-1.707-4.267,0-5.973C111.36,31.573,180.48,0,253.867,0c21.333,0,41.813,2.56,61.44,7.68
	c2.56,0.853,3.413,2.56,3.413,5.12c-3.413,13.653,2.56,22.187,6.827,29.867c2.56,4.267,5.12,7.68,5.12,11.947
	c0,36.693-6.827,55.467-21.333,55.467c-10.24,0-32.427,11.093-40.107,25.6c-3.413,6.827-3.413,12.8,0.853,19.627
	c5.12,7.68,9.387,16.213,13.653,23.893c10.24,20.48,16.213,29.013,23.893,25.6c7.68-3.413,15.36-19.627,21.333-31.573
	c7.68-16.213,14.507-28.16,23.04-28.16l0,0c20.48,0.853,29.013,18.773,35.84,33.28c4.267,8.533,7.68,17.067,13.653,19.627
	c9.387,5.12,54.613,0,87.04-11.947c-5.973-20.48-14.507-40.107-25.6-58.027c-0.853-1.707-0.853-4.267,1.707-5.973
	c1.707-0.853,4.267-0.853,5.973,1.707c11.947,19.627,21.333,40.96,27.307,64v0.853c0,0.853,0,0.853-0.853,1.707
	c0,0.853-0.853,0.853-0.853,1.707l-0.853,0.853c-31.573,13.653-83.627,20.48-97.28,13.653c-8.533-4.267-12.8-13.653-17.067-23.893
	c-5.973-13.653-12.8-27.307-28.16-28.16c-3.413,0-11.093,15.36-15.36,23.893c-7.68,15.36-15.36,30.72-25.6,35.84
	C306.774,214.187,304.214,215.04,301.654,215.04z M21.76,189.44c-11.947,0-21.333-9.387-21.333-21.333
	c0-10.24,7.68-18.773,17.067-21.333c0-1.707,0-3.413,0-4.267c0-16.213,13.653-29.867,29.867-29.867
	c9.387,0,17.92,4.267,23.04,11.093c3.413-1.707,6.827-2.56,11.093-2.56c11.947,0,21.333,9.387,21.333,21.333
	c0,11.947-9.387,21.333-21.333,21.333c-3.413,0-7.68-0.853-11.093-2.56c-6.827,8.533-17.067,12.8-28.16,11.093
	C40.534,181.76,32,189.44,21.76,189.44z M21.76,151.894v3.413c-6.827,0-12.8,5.973-12.8,12.8s5.973,12.8,12.8,12.8
	s12.8-5.973,12.8-12.8v-0.853c0-1.707,0.853-2.56,1.707-3.413c0.853-0.853,2.56-0.853,4.267-0.853c2.56,0.853,5.12,1.707,7.68,1.707
	c7.68,0,14.507-4.267,18.773-11.093c0.853-0.853,1.707-1.707,3.413-2.56c1.707,0,2.56,0,3.413,0.853
	c2.56,2.56,5.973,3.413,8.533,3.413c6.827,0,12.8-5.973,12.8-12.8c0-6.827-5.973-12.8-12.8-12.8c-3.413,0-6.827,0.853-8.533,3.413
	c-0.853,0.853-2.56,1.707-3.413,0.853c-1.707,0-2.56-0.853-3.413-2.56c-3.413-6.827-11.093-11.093-18.773-11.093
	c-11.947,0-21.333,9.387-21.333,21.333c0,2.56,0.853,5.12,1.707,6.827c0.853,1.707,0,2.56-0.853,4.267
	c-0.853,0.853-2.56,1.707-3.413,1.707L21.76,151.894L21.76,151.894z M415.147,122.027c-0.853,0-2.56,0-3.413-0.853
	c-1.707-1.707-1.707-4.267,0-5.973c32.427-32.427,62.293-45.227,88.747-37.547c2.56,0.853,3.413,3.413,2.56,5.12
	c-0.853,2.56-3.413,3.413-5.12,2.56c-23.04-6.827-50.347,5.12-80.213,34.987C417.707,122.027,416,122.027,415.147,122.027z
	 M388.694,94.72c-0.853,0-2.56,0-3.413-0.853c-1.707-1.707-1.707-4.267,0-5.973c29.867-29.867,40.96-56.32,34.987-80.213
	c-0.853-2.56,0.853-4.267,3.413-5.12c2.56-0.853,4.267,0.853,5.12,3.413c6.827,27.307-5.12,57.173-37.547,88.747
	C390.4,94.72,389.547,94.72,388.694,94.72z M439.894,69.974c-0.853,0-2.56,0-3.413-0.853c-0.853-0.853-0.853-1.707-0.853-3.413
	c0-1.707,0-2.56,0.853-3.413l42.667-42.667c1.707-1.707,4.267-1.707,5.973,0c0.853,0.853,0.853,1.707,0.853,3.413
	s0,2.56-0.853,3.413L442.454,69.12C442.454,69.974,440.747,69.974,439.894,69.974z M380.16,44.374c-0.853,0-2.56-0.853-3.413-1.707
	c0,0-12.8-16.213-31.573-19.627c-2.56-0.853-4.267-2.56-3.413-5.12c0.853-2.56,2.56-4.267,5.12-3.413
	c21.333,4.267,35.84,21.333,36.693,22.187c1.707,1.707,0.853,4.267-0.853,5.973C381.867,44.374,381.014,44.374,380.16,44.374z"/>
<g>
</g>
<g>
</g>
<g>
</g>
<g>
</g>
<g>
</g>
<g>
</g>
<g>
</g>
<g>
</g>
<g>
</g>
<g>
</g>
<g>
</g>
<g>
</g>
<g>
</g>
<g>
</g>
<g>
</g>
</svg>
